<?xml version="1.0" encoding="UTF-8"?>
<!-- Created with Inkscape (http://www.inkscape.org/) -->
<svg width="48" height="48" version="1.1" viewBox="0 0 12.7 12.7" xmlns="http://www.w3.org/2000/svg">
 <defs>
  <clipPath id="clipPath17572-5">
   <path d="m297.75 100.66h35v20h-35z" stroke-width=".35278"/>
  </clipPath>
  <clipPath id="clipPath17587-1">
   <path d="m297.75 100.66h35v20h-35z" stroke-width=".35278"/>
  </clipPath>
 </defs>
 <g transform="matrix(.12708 0 0 .12708 70.002 13.913)">
  <path transform="matrix(17.701 0 0 17.701 -6262.8 -2000.1)" d="m327.26 110.67c0 0.96661-0.78352 1.7501-1.7501 1.7501-0.96626 0-1.7498-0.78352-1.7498-1.7501s0.78352-1.7501 1.7498-1.7501c0.96661 0 1.7501 0.78352 1.7501 1.7501" clip-path="url(#clipPath17572-5)" fill="#f79434"/>
  <path transform="matrix(17.701 0 0 17.701 -6262.8 -2000.1)" d="m325.54 110.38h7.1e-4c-1e-3 2e-3 -2e-3 4e-3 -4e-3 6e-3zm1.8129-1.391c0.0286-0.0483 2e-3 -0.10936-0.0247-0.15911-0.0138-0.0258-0.0307-0.054-0.0593-0.0614-0.0247-6e-3 -0.0589 2e-3 -0.0699-0.0215-7e-3 -0.0145 2e-3 -0.031 3e-3 -0.0473 5e-3 -0.072-0.13723-0.0801-0.13547-0.1524 7.1e-4 -0.0187 0.012-0.037 7e-3 -0.0554-9e-3 -0.0353-0.0681-0.0388-0.0741-0.0748-2e-3 -0.0141 5e-3 -0.0279 8e-3 -0.0416 0.0102-0.0444-0.0236-0.0861-0.0356-0.12983-8e-3 -0.0296-6e-3 -0.061-5e-3 -0.0917 0.0113-0.18662 0.0226-0.37324 0.0335-0.55986 6e-3 -0.10618 0.0127-0.21202 0.0102-0.3182-4e-3 -0.15769-0.0265-0.31503-0.0681-0.46708-1e-3 0.29951-0.0356 0.59937-0.10301 0.89147-0.0265 0.11536-0.0586 0.23036-0.0677 0.34819-0.0106 0.13123 7e-3 0.26317 0.0251 0.39335 0.0208 0.15452 0.0504 0.3242 0.17215 0.42122 0.0272 0.0215 0.0624 0.0494 0.0519 0.0825-4e-3 0.0138-0.0159 0.024-0.0272 0.0332-0.0801 0.0663-0.16687 0.13546-0.27023 0.14499-0.0268 2e-3 -0.061 6e-3 -0.0688 0.0314-4e-3 0.013 2e-3 0.0268 7e-4 0.0402-2e-3 0.031-0.0342 0.0511-0.0646 0.0568-0.0307 6e-3 -0.0628 3e-3 -0.0917 0.0148-0.0289 0.0116-0.0505 0.036-0.0709 0.0596-0.031 0.036-0.0624 0.072-0.0935 0.10795-0.0124 0.0141-0.0254 0.0286-0.0423 0.0367-0.0427 0.0194-0.10971-1e-3 -0.127 0.0423-0.0106 0.0268 0.0106 0.0579 2e-3 0.0854-0.0212 0.0656-0.15523 0.01-0.1771 0.0751-0.01 0.0282 0.0131 0.0564 0.0339 0.0776-0.12347 0.0494-0.21943 0.15311-0.28469 0.26917-0.0155 0.0279-0.0296 0.0561-0.0423 0.0854-0.0346 3e-3 -0.0681 0.0173-0.0938 0.0409-0.0141 0.0134-0.0268 0.0296-0.0452 0.0363-0.0208 7e-3 -0.0437-3.5e-4 -0.0624-0.0116-0.019-0.0116-0.0349-0.0268-0.054-0.0378-0.0236-0.0134-0.0511-0.0194-0.078-0.0173-0.0339-0.0663-0.0709-0.13088-0.11606-0.19015-0.0804-0.10583-0.1898-0.19509-0.31927-0.22684 0.018-0.024 0.0363-0.055 0.0229-0.0818-0.0307-0.0617-0.15557 0.0123-0.18556-0.0497-0.0127-0.0261 4e-3 -0.06-0.0102-0.085-0.0229-0.0406-0.0868-0.0109-0.13159-0.0243-0.018-5e-3 -0.0328-0.018-0.0469-0.0303-0.036-0.0314-0.072-0.0628-0.10795-0.0942-0.0233-0.0205-0.048-0.0416-0.0783-0.049-0.03-7e-3 -0.0617-3.5e-4 -0.0924-2e-3 -0.031-2e-3 -0.066-0.0173-0.0723-0.0476-2e-3 -0.0131 7.1e-4 -0.0275-5e-3 -0.0395-0.0113-0.0247-0.0455-0.0233-0.0727-0.0219-0.10371 5e-3 -0.19932-0.0519-0.28751-0.10619-0.0124-8e-3 -0.0254-0.0159-0.0318-0.0289-0.0148-0.0314 0.0162-0.0639 0.0402-0.0893 0.10724-0.11253 0.11288-0.28504 0.11218-0.44062-3.5e-4 -0.13158-1e-3 -0.26458-0.0296-0.39299-0.0254-0.11571-0.073-0.22507-0.11536-0.33585-0.10725-0.27975-0.18309-0.57185-0.22507-0.86854-0.0205 0.15628-0.0215 0.31539-3e-3 0.47202 0.0123 0.10548 0.0332 0.20955 0.0543 0.31362 0.0367 0.18344 0.0737 0.36689 0.11042 0.54998 6e-3 0.0303 0.0123 0.061 8e-3 0.0914-6e-3 0.0452-0.0335 0.0907-0.0176 0.13335 5e-3 0.0134 0.0145 0.0261 0.0141 0.0406-1e-3 0.036-0.0593 0.048-0.0632 0.0843-2e-3 0.0187 0.012 0.0353 0.0148 0.0536 0.0116 0.0713-0.12736 0.0991-0.11289 0.16968 3e-3 0.0159 0.0141 0.031 0.01 0.0466-7e-3 0.0243-0.0423 0.0212-0.066 0.0307-0.0272 0.0113-0.0402 0.0416-0.0504 0.0691-0.0194 0.0529-0.0374 0.11713-2e-3 0.16087 0.0102 0.013 0.0243 0.0233 0.0296 0.0388 6e-3 0.0183-3e-3 0.0402 6e-3 0.0579 6e-3 0.0116 0.0183 0.0187 0.03 0.0247 0.26212 0.13793 0.54011 0.24553 0.79305 0.39969 0.2353 0.14358 0.46707 0.37959 0.58455 0.6343-2e-3 1e-3 -5e-3 2e-3 -7e-3 3e-3 -0.0307 0.0166-0.055 0.0427-0.0734 0.0723-0.16334-0.18591-0.41981-0.38135-0.63324-0.47131-0.121-0.0512-0.25082-0.0759-0.38029-0.0977-0.0582-0.01-0.11924-0.0187-0.17533-3.5e-4 -0.0561 0.0183-0.10478 0.0734-0.0953 0.13158 5e-3 0.0328 0.0272 0.0603 0.048 0.0864 0.0575 0.0727 0.11112 0.14852 0.16016 0.22684 0.0314 0.0501 0.061 0.10125 0.0988 0.1464 0.12277 0.14746 0.32068 0.21626 0.51259 0.21978 8e-3 0 0.0162 0 0.0236 3e-3 0.01 4e-3 0.0169 0.0134 0.0236 0.0219 0.0628 0.0797 0.139 0.14923 0.22437 0.20426 0.0229 0.0392 0.0483 0.0765 0.0762 0.11218 0.0198 0.0254 0.0409 0.0497 0.066 0.0698 0.0265 0.0208 0.0568 0.036 0.0885 0.0476 4e-3 0.0367 0.0145 0.0723 0.0254 0.10759 0.0268 0.0854 0.0561 0.1711 0.0991 0.24942 0.0148 0.0268 0.0317 0.0536 0.048 0.0801 0.024 0.0882 0.0374 0.1785 0.0317 0.26952-4e-3 0.0607-0.0141 0.12841 0.0229 0.17674 0.0349 0.0452 0.10124 0.0579 0.13299 0.10513 0.0113 0.0162 0.0173 0.0356 0.0289 0.0519 0.0215 0.0296 0.0593 0.0427 0.0945 0.0526 0.0674 0.0187 0.13724 0.0328 0.20638 0.0247 0.0691-8e-3 0.13794-0.042 0.17498-0.10125 0.0131-0.0208 0.0219-0.0441 0.0332-0.066 4e-3 -5e-3 8e-3 -9e-3 0.0124-0.0138 0.0374-0.0395 0.0903-0.066 0.1143-0.115 0.0187-0.0395 0.0148-0.0861 6e-3 -0.12912-1e-3 -6e-3 -2e-3 -0.0123-4e-3 -0.0183 3.6e-4 -0.0575-5e-3 -0.11677 7e-3 -0.17251 0.0159-0.0709 0.0589-0.13159 0.0917-0.19615 0.048-0.0931 0.0755-0.19649 0.0808-0.30127 0.12841-0.061 0.24271-0.15205 0.33055-0.26388 7e-3 -9e-3 0.0138-0.0176 0.024-0.0219 7e-3 -3e-3 0.0155-3e-3 0.0236-3e-3 0.19156-4e-3 0.38947-0.0727 0.51223-0.21978 0.0378-0.0452 0.0677-0.0963 0.0988-0.14641 0.0494-0.0783 0.10301-0.15416 0.16051-0.22683 0.0205-0.0261 0.0427-0.0536 0.048-0.0864 9e-3 -0.0586-0.0395-0.11325-0.0956-0.13159-0.0561-0.0187-0.11712-0.01-0.17498 3.5e-4 -0.12947 0.0215-0.25964 0.0466-0.38029 0.0977-0.18486 0.078-0.33796 0.21273-0.47131 0.36442-0.0219-0.043-0.0533-0.0815-0.0903-0.11289-5e-3 -4e-3 -0.01-8e-3 -0.0145-0.012 0.0762-0.27058 0.26882-0.49777 0.48754-0.67698 0.22895-0.18803 0.4893-0.33303 0.7299-0.50589 0.0109-8e-3 0.0219-0.0162 0.0261-0.0286 6e-3 -0.0187-6e-3 -0.0388-2e-3 -0.0582 3e-3 -0.0162 0.0155-0.0282 0.024-0.0423" clip-path="url(#clipPath17587-1)"/>
 </g>
</svg>
