<?xml version="1.0" encoding="UTF-8"?>
<!-- Created with Inkscape (http://www.inkscape.org/) -->
<svg width="1303" height="376" version="1.1" viewBox="0 0 344.75 99.483" xmlns="http://www.w3.org/2000/svg">
 <defs>
  <clipPath id="clipPath16657-2">
   <path d="m297.75 100.66h35v20h-35z" stroke-width=".35278"/>
  </clipPath>
  <clipPath id="clipPath17482-6">
   <path d="m297.75 100.66h35v20h-35z" stroke-width=".35278"/>
  </clipPath>
  <clipPath id="clipPath17497-4">
   <path d="m297.75 100.66h35v20h-35z" stroke-width=".35278"/>
  </clipPath>
  <clipPath id="clipPath16867-0">
   <path d="m297.75 100.66h35v20h-35z" stroke-width=".35278"/>
  </clipPath>
  <clipPath id="clipPath17437-5">
   <path d="m297.75 100.66h35v20h-35z" stroke-width=".35278"/>
  </clipPath>
  <clipPath id="clipPath17512-4">
   <path d="m297.75 100.66h35v20h-35z" stroke-width=".35278"/>
  </clipPath>
  <clipPath id="clipPath17452-5">
   <path d="m297.75 100.66h35v20h-35z" stroke-width=".35278"/>
  </clipPath>
  <clipPath id="clipPath16837-1">
   <path d="m297.75 100.66h35v20h-35z" stroke-width=".35278"/>
  </clipPath>
  <clipPath id="clipPath17467-2">
   <path d="m297.75 100.66h35v20h-35z" stroke-width=".35278"/>
  </clipPath>
  <clipPath id="clipPath17677-9">
   <path d="m297.75 100.66h35v20h-35z" stroke-width=".35278"/>
  </clipPath>
  <clipPath id="clipPath17542-2">
   <path d="m297.75 100.66h35v20h-35z" stroke-width=".35278"/>
  </clipPath>
  <clipPath id="clipPath17617-0">
   <path d="m297.75 100.66h35v20h-35z" stroke-width=".35278"/>
  </clipPath>
  <clipPath id="clipPath17527-2">
   <path d="m297.75 100.66h35v20h-35z" stroke-width=".35278"/>
  </clipPath>
  <clipPath id="clipPath17602-8">
   <path d="m297.75 100.66h35v20h-35z" stroke-width=".35278"/>
  </clipPath>
  <clipPath id="clipPath17632-4">
   <path d="m297.75 100.66h35v20h-35z" stroke-width=".35278"/>
  </clipPath>
  <clipPath id="clipPath17557-0">
   <path d="m297.75 100.66h35v20h-35z" stroke-width=".35278"/>
  </clipPath>
  <clipPath id="clipPath17662-9">
   <path d="m297.75 100.66h35v20h-35z" stroke-width=".35278"/>
  </clipPath>
  <clipPath id="clipPath17647-1">
   <path d="m297.75 100.66h35v20h-35z" stroke-width=".35278"/>
  </clipPath>
  <clipPath id="clipPath17572-5">
   <path d="m297.75 100.66h35v20h-35z" stroke-width=".35278"/>
  </clipPath>
  <clipPath id="clipPath17587-1">
   <path d="m297.75 100.66h35v20h-35z" stroke-width=".35278"/>
  </clipPath>
 </defs>
 <g transform="translate(980.88 404.96)">
  <g transform="matrix(1.0817 0 0 1.0817 -407.52 -281.35)">
   <path transform="matrix(26.51 0 0 26.51 -8959.8 -3093.6)" d="m322.16 113.03c-0.24306 0-0.53164 0.14887-0.70732 0.28822 0.0131-6e-3 0.11501 0.0134 0.12806 0.0212 0.0152 0.01 0.0194 0.0212 0.0194 0.0367 0 0.20496-2e-3 0.40604 2e-3 0.61101 0 0.0483-2e-3 0.21484 9e-3 0.25329 2e-3 8e-3 9e-3 0.0155 0.013 0.0233 0.0413 0.0716 0.12347 0.13723 0.21908 0.13723 0.18662 0 0.28857-0.14499 0.28857-0.2995 0-0.14323-0.091-0.23213-0.25365-0.23213-0.0543 0-0.11077 0.0194-0.13899 0.0194-0.0325 0-0.10196-0.0427-0.10866-0.0716l5e-3 -8e-3c0.0215-0.0173 0.091-0.0466 0.11924-0.0639 0.0367-0.0212 0.0716-0.0462 0.10618-0.0716 0.15628-0.11218 0.41663-0.38664 0.41663-0.57221 0-0.066-0.0543-0.0716-0.11712-0.0716m-0.27975 0.78317c0.21025 0.0155 0.34713 0.16227 0.34713 0.34607 0 0.17004-0.13229 0.32491-0.33408 0.32491-0.10231 0-0.20849-0.0504-0.26917-0.12171 2e-3 0.0268 0.0131 0.054 0.024 0.0811 4e-3 6e-3 0.0152 0.0173 0.0152 0.025 0 0.0116-0.0219 0.0155-0.0328 0.0155-0.0649 0-0.12347-0.0427-0.12347-0.10266 0-0.0829-5e-3 -0.16404-9e-3 -0.2473-6e-3 -0.14111-0.0109-0.28222-0.0215-0.42368-9e-3 -0.0984-0.0176-0.19897-0.0282-0.29775l-5e-3 -0.0483c-2e-3 -0.0116-8e-3 -0.0229-8e-3 -0.0346-0.0501 0.0423-0.254 0.23178-0.25188 0.2861v2e-3l2e-3 4e-3 2e-3 2e-3c2e-3 4e-3 8e-3 0.0155 8e-3 0.0194 0 0.01-0.0109 0.0134-0.0194 0.0134-0.037 0-0.16263-0.0734-0.16263-0.10442 0-8e-3 4e-3 -0.0134 0.0106-0.0194 0.1196-0.13159 0.24307-0.25718 0.39512-0.3616 0.17145-0.11994 0.43603-0.25329 0.66181-0.25329 0.14534 0 0.2734 0.0811 0.2734 0.2166 0 0.21661-0.2734 0.56268-0.47519 0.67875" clip-path="url(#clipPath16657-2)"/>
   <g fill="#f79434">
    <path transform="matrix(26.51 0 0 26.51 -8959.8 -3093.6)" d="m322.59 113.45c-6e-3 -4e-3 -0.0173-0.0155-0.0261-0.0155-0.0131 0-0.0236 6e-3 -0.0325 0.0138-0.0759 0.0596-0.10195 0.20849-0.10195 0.29562 0 0.066 9e-3 0.145 0.0476 0.20109 0.0109 0.0138 0.0586 0.0522 0.0586 0.0621 0 0.0134-0.0236 0.0152-0.0346 0.0152-0.0783 0-0.12806-0.079-0.14993-0.13512v0.0233c-2e-3 0.13123 0.0282 0.33831 0.16722 0.40992 0.0109 6e-3 0.024 0.0116 0.037 0.0116 0.0106 0 0.0215-6e-3 0.0303-0.0116 0.10407-0.0716 0.12559-0.33478 0.12559-0.44485 0-0.11783-0.0106-0.34043-0.12136-0.42545m0.10619 0.8449c-0.0346 0.0406-0.0868 0.0794-0.14746 0.0794-0.2473 0-0.31257-0.29775-0.31257-0.46779 0-0.0621 0.024-0.34431 0.0783-0.37535 0.013-8e-3 0.0261-8e-3 0.0392-8e-3 8e-3 0 0.0152 2e-3 0.0236 4e-3 0.037-0.0656 0.0737-0.13335 0.16721-0.13335 0.0282 0 0.0586 6e-3 0.0825 0.0194 0.14958 0.0811 0.19085 0.28998 0.19085 0.43498 0 0.13934-0.0261 0.33443-0.1217 0.44661" clip-path="url(#clipPath17482-6)"/>
    <path transform="matrix(26.51 0 0 26.51 -8959.8 -3093.6)" d="m323.1 113.98c-0.037-0.0755-0.0649-0.15487-0.0889-0.23389-0.0131 0.0829-0.0261 0.16827-0.0413 0.25118-0.0109 0.0582-0.0261 0.11606-0.0346 0.17427 0.0303 0.0579 0.0801 0.14675 0.16687 0.14675 0.0586 0 0.0737-0.0423 0.0737-0.0868 0-0.0699-0.0434-0.18591-0.0759-0.25153m7e-3 0.39053c-0.115 0-0.23248-0.11219-0.29316-0.18733-0.0109-0.0138-0.0194-0.0272-0.0194-0.0427 0-0.0233 0.024-0.0406 0.0497-0.0406 0.0131 0 0.0261 4e-3 0.0349 0.0134 0.0388-0.085 0.0737-0.39229 0.0737-0.4893 0-0.0483-0.0109-0.37113 0.0476-0.37113 0.0194 0 0.0956 0.0466 0.10407 0.0639 5e-3 8e-3 5e-3 0.0155 5e-3 0.0233 0 0.0579-0.0413 0.11007-0.0413 0.17004 0 0.23989 0.23425 0.48719 0.23425 0.69427 0 0.0984-0.0889 0.16616-0.19509 0.16616" clip-path="url(#clipPath17497-4)"/>
    <path transform="matrix(26.51 0 0 26.51 -8959.8 -3093.6)" d="m323.67 114.37c-0.27764 0-0.3623-0.3115-0.3623-0.50871 0-0.14675 0.0519-0.35172 0.16474-0.46213 0.0152-0.0134 0.0325-0.0307 0.0564-0.0307 0.0349 0 0.091 0.0117 0.115 0.0346 0.0194 6e-3 0.0392 0.0155 0.0564 0.0254 0.0674 0.0384 0.0716 0.18556 0.0716 0.24941 0 0.0406 0 0.20285-0.0695 0.20285-0.067 0-0.078-0.0889-0.078-0.13335 0-0.0406 0.0109-0.10266 0.0476-0.13159l2e-3 -0.0116c2e-3 -0.0367 0-0.14288-0.0413-0.16228h-2e-3c-0.15381 0.0561-0.19508 0.34819-0.19508 0.47943 0 0.1143 0.0261 0.26881 0.11923 0.35383 0.0219 0.0194 0.0649 0.0504 0.0956 0.0504 0.12347 0 0.19297-0.19932 0.21237-0.28434 2e-3 -0.01 2e-3 -0.0384 0.0197-0.0384 0.0131 0 0.0261 0.01 0.0261 0.0212 0 0.11607-0.0762 0.34608-0.23883 0.34608" clip-path="url(#clipPath16867-0)"/>
    <path transform="matrix(26.51 0 0 26.51 -8959.8 -3093.6)" d="m324.48 114.35c-0.22789 0-0.25153-0.33655-0.25153-0.48719 0-0.11606 0.0106-0.23424 0.0303-0.34819-0.0328 0.0677-0.21273 0.74048-0.21273 0.79657 0 0.01 8e-3 0.0427-7e-3 0.0427-0.0215 0-0.054-0.0173-0.0716-0.0289-0.0737-0.0466-0.0519-0.0889-0.054-0.16651l-5e-3 -0.14499-0.0131-0.58773-6e-3 -0.30374c-2e-3 -0.0501 0-0.0967-0.0173-0.14287-2e-3 -4e-3 8e-3 -6e-3 0.0109-6e-3 0.0409 0 0.13864 0.0444 0.13864 0.0889 0 0.1337-2e-3 0.26705-2e-3 0.4004 0 0.20708 6e-3 0.41381 9e-3 0.62089 0.0476-0.21872 0.12347-0.43533 0.1972-0.64805 5e-3 -0.0116 0.0109-0.0289 0.0282-0.0289 0.0198 0 0.10442 0.0233 0.12171 0.0328 0.0152 8e-3 0.0215 0.0215 0.0215 0.0367 0 0.0194-6e-3 0.0388-8e-3 0.0582-0.0219 0.14888-0.037 0.30551-0.037 0.45615 0 0.0522 9e-3 0.30197 0.0977 0.30197 0.0586 0 0.11289-0.24976 0.11924-0.27869 2e-3 -0.0116 7e-3 -0.025 0.0219-0.025 0.0152 0 0.0215 0.0173 0.0215 0.0289 0 0-0.0324 0.29774-0.13229 0.33267" clip-path="url(#clipPath17437-5)"/>
    <path transform="matrix(26.51 0 0 26.51 -8959.8 -3093.6)" d="m325.42 113.25c-0.11289 0-0.13229 0.17392-0.13229 0.24377 0 0.0639 0.0109 0.17004 0.0586 0.22049 0.0998-0.0639 0.14323-0.22049 0.14323-0.32315 0-0.0367-9e-3 -0.14111-0.0695-0.14111m-0.11924 0.61101c-0.0868 0.0543-0.14993 0.15275-0.14993 0.24765 0 0.11607 0.0716 0.21273 0.21061 0.21273 0.12347 0 0.19967-0.11042 0.22119-0.20708-0.0868-0.0695-0.21696-0.16828-0.28187-0.2533m0.4946 0.31927c-0.0392 0-0.0801-0.01-0.11501-0.0233-0.0455 0.12559-0.14958 0.21837-0.30374 0.21837-0.19544 0-0.34713-0.0984-0.34713-0.28046 0-0.13123 0.10195-0.24729 0.21907-0.31891-0.0455-0.0734-0.0889-0.1778-0.0889-0.26317 0-0.10231 0.0109-0.23954 0.1083-0.30939 0.0131-0.01 0.0349-0.0212 0.0543-0.0212 0.0219 0 0.0998 0.0155 0.11289 0.0289 0.10407 0.0293 0.14534 0.14888 0.14534 0.23601 0 0.11783-0.0889 0.26318-0.19297 0.33444 0.0346 0.0854 0.13653 0.18591 0.21238 0.24553 7e-3 -0.0268 0.0109-0.0557 0.0109-0.085 0-0.0423-0.0109-0.0928-0.0413-0.12559-4e-3 -6e-3 -0.0236-0.0194-0.0282-0.0272v-4e-3l2e-3 -2e-3c6e-3 0 0.0388 8e-3 0.0455 0.01 0.10196 0.0254 0.12348 0.10654 0.12348 0.18944 0 0.0332-4e-3 0.0677-0.0131 0.0988 0.0109 0.0173 0.048 0.0173 0.0674 0.0173 0.11078 0 0.17569-0.11606 0.19968-0.1972 4e-3 -0.0134 6e-3 -0.0328 0.013-0.0462l8e-3 -4e-3c2e-3 0 5e-3 2e-3 7e-3 2e-3 0.0109 0.0116 0.0152 0.11818 0.0152 0.13723 0 0.10442-0.0998 0.1898-0.21484 0.1898" clip-path="url(#clipPath17512-4)"/>
   </g>
   <path transform="matrix(26.51 0 0 26.51 -8959.8 -3093.6)" d="m327.42 113.03c-0.24306 0-0.53164 0.14887-0.70732 0.28822 0.013-6e-3 0.11501 0.0134 0.12806 0.0212 0.0152 0.01 0.0194 0.0212 0.0194 0.0367 0 0.20496-2e-3 0.40604 2e-3 0.61101 0 0.0483-2e-3 0.21484 9e-3 0.25329 2e-3 8e-3 9e-3 0.0155 0.0131 0.0233 0.0413 0.0716 0.12347 0.13723 0.21908 0.13723 0.18662 0 0.28857-0.14499 0.28857-0.2995 0-0.14323-0.091-0.23213-0.25365-0.23213-0.0543 0-0.11077 0.0194-0.13899 0.0194-0.0325 0-0.10196-0.0427-0.10866-0.0716l5e-3 -8e-3c0.0215-0.0173 0.091-0.0466 0.11924-0.0639 0.0367-0.0212 0.0716-0.0462 0.10618-0.0716 0.15628-0.11218 0.41663-0.38664 0.41663-0.57221 0-0.066-0.0543-0.0716-0.11712-0.0716m-0.27975 0.78317c0.21025 0.0155 0.34713 0.16227 0.34713 0.34607 0 0.17004-0.13264 0.32491-0.33408 0.32491-0.10231 0-0.20849-0.0504-0.26917-0.12171 2e-3 0.0268 0.013 0.054 0.024 0.0811 4e-3 6e-3 0.0152 0.0173 0.0152 0.025 0 0.0116-0.0219 0.0155-0.0328 0.0155-0.0649 0-0.12347-0.0427-0.12347-0.10266 0-0.0829-5e-3 -0.16404-9e-3 -0.2473-6e-3 -0.14111-0.0109-0.28222-0.0215-0.42368-9e-3 -0.0984-0.0176-0.19897-0.0282-0.29775l-5e-3 -0.0483c-2e-3 -0.0116-8e-3 -0.0229-8e-3 -0.0346-0.0501 0.0423-0.254 0.23178-0.25188 0.2861v2e-3l2e-3 4e-3 2e-3 2e-3c2e-3 4e-3 8e-3 0.0155 8e-3 0.0194 0 0.01-0.0109 0.0134-0.0194 0.0134-0.037 0-0.16263-0.0734-0.16263-0.10442 0-8e-3 4e-3 -0.0134 0.0106-0.0194 0.1196-0.13159 0.24307-0.25718 0.39512-0.3616 0.17145-0.11994 0.43603-0.25329 0.66181-0.25329 0.14534 0 0.2734 0.0811 0.2734 0.2166 0 0.21661-0.2734 0.56268-0.47519 0.67875" clip-path="url(#clipPath17452-5)"/>
   <g fill="#f79434">
    <path transform="matrix(26.51 0 0 26.51 -8959.8 -3093.6)" d="m327.86 113.45c-6e-3 -4e-3 -0.0173-0.0155-0.0261-0.0155-0.013 0-0.0236 6e-3 -0.0324 0.0138-0.0759 0.0596-0.10195 0.20849-0.10195 0.29562 0 0.066 9e-3 0.145 0.0476 0.20109 0.0109 0.0138 0.0586 0.0522 0.0586 0.0621 0 0.0134-0.0236 0.0152-0.0346 0.0152-0.0783 0-0.12806-0.079-0.14993-0.13512v0.0233c-2e-3 0.13123 0.0282 0.33831 0.16722 0.40992 0.0109 6e-3 0.024 0.0116 0.037 0.0116 0.0106 0 0.0215-6e-3 0.0303-0.0116 0.10407-0.0716 0.12559-0.33478 0.12559-0.44485 0-0.11783-0.0106-0.34043-0.12136-0.42545m0.10619 0.8449c-0.0346 0.0406-0.0868 0.0794-0.14746 0.0794-0.2473 0-0.31257-0.29775-0.31257-0.46779 0-0.0621 0.024-0.34431 0.0783-0.37535 0.0131-8e-3 0.0261-8e-3 0.0392-8e-3 8e-3 0 0.0152 2e-3 0.0236 4e-3 0.037-0.0656 0.0737-0.13335 0.16721-0.13335 0.0282 0 0.0586 6e-3 0.0825 0.0194 0.14958 0.0811 0.19085 0.28998 0.19085 0.43498 0 0.13934-0.0261 0.33443-0.1217 0.44661" clip-path="url(#clipPath16837-1)"/>
    <path transform="matrix(26.51 0 0 26.51 -8959.8 -3093.6)" d="m328.46 114.39c-0.30374 0-0.31044-0.51435-0.31044-0.70379 0-0.0561 0-0.1143 2e-3 -0.17039-0.0155 2e-3 -0.0261 4e-3 -0.0413 4e-3 -0.0219 0-0.10442-0.0173-0.10442-0.0406 0-6e-3 0.0328-0.0116 0.0392-0.0116l0.11077-0.0152c8e-3 -0.0854 0.013-0.1704 0.0194-0.25541 2e-3 -0.0289 5e-3 -0.06 7e-3 -0.0889 0-2e-3 8e-3 -2e-3 8e-3 -2e-3 9e-3 0 0.0198 2e-3 0.0303 4e-3 0.0935 0.0176 0.10195 0.0328 0.10442 0.0543-2e-3 0.0134-0.0176 0.12947-0.0198 0.14111-6e-3 0.0427-8e-3 0.085-0.0131 0.12947 0.0653-8e-3 0.17604-0.025 0.24095-0.025 4e-3 0 0.0152 2e-3 0.0152 8e-3 0 0.0173-0.0346 0.0328-0.0497 0.0367 2e-3 2e-3 4e-3 6e-3 4e-3 8e-3 0 0.01-6e-3 0.0173-0.0152 0.0233-0.0194 0.0116-0.16263 0.0194-0.19967 0.0229-4e-3 0.0582-9e-3 0.11818-9e-3 0.17603 0 0.1644-8e-3 0.53199 0.13265 0.63818 0.0106 8e-3 0.0236 0.0155 0.0367 0.0173 0.0653-0.0444 0.0998-0.12347 0.12171-0.1912 0.0194-0.0621 0.0346-0.12559 0.0434-0.18944 2e-3 -0.01 2e-3 -0.0406 0.0194-0.0406 0.0194 0 0.024 7e-3 0.024 0.0229 0 0.0988-0.0501 0.44873-0.19756 0.44873" clip-path="url(#clipPath17467-2)"/>
    <path transform="matrix(26.51 0 0 26.51 -8959.8 -3093.6)" d="m329.19 114.35c-0.22789 0-0.25153-0.33655-0.25153-0.48719 0-0.11606 0.0106-0.23424 0.0303-0.34819-0.0328 0.0677-0.21273 0.74048-0.21273 0.79657 0 0.01 8e-3 0.0427-7e-3 0.0427-0.0215 0-0.054-0.0173-0.0716-0.0289-0.0737-0.0466-0.0519-0.0889-0.054-0.16651l-5e-3 -0.14499-0.0131-0.58773-6e-3 -0.30374c-2e-3 -0.0501 0-0.0967-0.0173-0.14287-2e-3 -4e-3 8e-3 -6e-3 0.0109-6e-3 0.0409 0 0.13864 0.0444 0.13864 0.0889 0 0.1337-2e-3 0.26705-2e-3 0.4004 0 0.20708 6e-3 0.41381 9e-3 0.62089 0.0476-0.21872 0.12347-0.43533 0.1972-0.64805 5e-3 -0.0116 0.0109-0.0289 0.0282-0.0289 0.0198 0 0.10442 0.0233 0.12171 0.0328 0.0152 8e-3 0.0215 0.0215 0.0215 0.0367 0 0.0194-6e-3 0.0388-8e-3 0.0582-0.0219 0.14888-0.037 0.30551-0.037 0.45615 0 0.0522 9e-3 0.30197 0.0977 0.30197 0.0586 0 0.11289-0.24976 0.11924-0.27869 2e-3 -0.0116 7e-3 -0.025 0.0219-0.025 0.0152 0 0.0215 0.0173 0.0215 0.0289 0 0-0.0324 0.29774-0.13229 0.33267" clip-path="url(#clipPath17677-9)"/>
    <path transform="matrix(26.51 0 0 26.51 -8959.8 -3093.6)" d="m329.87 114.33c-0.15416 0-0.22331-0.2727-0.23883-0.37888-6e-3 0.0656-0.0409 0.36159-0.14534 0.36159-0.0434 0-0.0847-0.0215-0.11501-0.0483-0.13229-0.11218-0.14958-0.29598-0.14958-0.44873 0-0.0367 6e-3 -0.0734 0.0131-0.1083 0.0173-0.0889 0.0476-0.17392 0.0956-0.2533 0.0303-0.0504 0.10407-0.16051 0.17568-0.16051 0.054 0 0.22119 0.1083 0.22119 0.14499 0 0.01-6e-3 0.0155-0.0173 0.0155-0.0152 0-0.0607-0.0656-0.11501-0.0656-0.0152 0-0.0303 6e-3 -0.0434 0.0134-0.16051 0.0889-0.21273 0.35948-0.21273 0.51435 0 0.0889 0.0173 0.21061 0.0653 0.28998 6e-3 0.0117 0.0388 0.0582 0.054 0.0582 0.0131 0 0.0307-0.0215 0.037-0.0293 0.0868-0.11394 0.10619-0.43286 0.11713-0.57996 0-0.01-4e-3 -0.0949 0.024-0.0949 0.0388 0 0.13229 0.0116 0.13229 0.0582 0 0.0695-0.0109 0.14111-0.0109 0.21272 0 0.0984 0.0173 0.37324 0.11077 0.4311 0.0497-0.0639 0.0737-0.1644 0.091-0.23989 2e-3 -0.0134 7e-3 -0.0617 0.0282-0.0617 0.013 0 0.0219 0.0116 0.0219 0.0233 0 0.0617-0.0459 0.34608-0.13899 0.34608" clip-path="url(#clipPath17542-2)"/>
   </g>
   <g transform="translate(0 -16.933)" fill="#f79434">
    <path transform="matrix(26.51 0 0 26.51 -8959.8 -3093.6)" d="m323.67 115.58h-0.085l-0.0148-0.0755c-0.01-6e-3 -0.0243-0.0113-0.043-0.0159-0.019-5e-3 -0.0392-7e-3 -0.0603-7e-3 -0.031 0-0.055 6e-3 -0.072 0.019-0.0169 0.0127-0.0254 0.0289-0.0254 0.049 0 0.0187 9e-3 0.0342 0.0265 0.0462 0.0176 0.0116 0.0483 0.0243 0.0921 0.0378 0.0621 0.0169 0.10971 0.0391 0.14181 0.067 0.0321 0.0275 0.0483 0.0639 0.0483 0.10901 0 0.0469-0.019 0.0843-0.0575 0.11148-0.0384 0.0272-0.0889 0.0406-0.15134 0.0406-0.0448 0-0.0854-7e-3 -0.12171-0.0205-0.036-0.0141-0.066-0.0332-0.0903-0.0575v-0.115h0.0878l0.012 0.0783c0.0116 9e-3 0.0272 0.0166 0.0466 0.0226 0.0198 6e-3 0.0413 9e-3 0.0656 9e-3 0.031 0 0.0547-6e-3 0.0709-0.0187 0.0162-0.0123 0.024-0.0286 0.024-0.0494 0-0.0212-7e-3 -0.0381-0.0229-0.0508-0.0155-0.0131-0.0423-0.0251-0.0811-0.0363-0.067-0.019-0.11783-0.0413-0.15205-0.0674-0.0346-0.0257-0.0519-0.0614-0.0519-0.10654 0-0.0444 0.0194-0.0808 0.0582-0.10936 0.0388-0.0282 0.0878-0.0427 0.14676-0.0434 0.0434 0 0.0829 6e-3 0.11888 0.019 0.0356 0.0131 0.0656 0.03 0.09 0.0515z" clip-path="url(#clipPath17617-0)"/>
    <path transform="matrix(26.51 0 0 26.51 -8959.8 -3093.6)" d="m324.08 115.73h0.12982l-0.0639-0.19368h-2e-3zm-0.20496 0.16369 0.0402-6e-3 0.17216-0.47836h0.11606l0.1711 0.47836 0.0402 6e-3v0.066h-0.19262v-0.066l0.0392-7e-3 -0.0247-0.0755h-0.18344l-0.0247 0.0755 0.0392 7e-3v0.066h-0.19261z" clip-path="url(#clipPath17527-2)"/>
    <path transform="matrix(26.51 0 0 26.51 -8959.8 -3093.6)" d="m324.61 115.89 0.0603-0.0113v-0.39476l-0.0603-0.0113v-0.0663h0.45014v0.15064h-0.0868l-5e-3 -0.066h-0.1845v0.15169h0.19826v0.085h-0.19826v0.15099l0.0607 0.0113v0.066h-0.23424z" clip-path="url(#clipPath17602-8)"/>
    <path transform="matrix(26.51 0 0 26.51 -8959.8 -3093.6)" d="m325.34 115.73h0.12982l-0.0639-0.19368h-2e-3zm-0.20496 0.16369 0.0402-6e-3 0.17216-0.47836h0.11606l0.1711 0.47836 0.0402 6e-3v0.066h-0.19262v-0.066l0.0392-7e-3 -0.0247-0.0755h-0.18344l-0.0247 0.0755 0.0392 7e-3v0.066h-0.19261z" clip-path="url(#clipPath17632-4)"/>
    <path transform="matrix(26.51 0 0 26.51 -8959.8 -3093.6)" d="m326.05 115.65h0.0783c0.0317 0 0.0554-7e-3 0.0713-0.0198 0.0159-0.0131 0.0236-0.0318 0.0236-0.0564 0-0.0247-8e-3 -0.0444-0.0233-0.0593-0.0159-0.0148-0.0388-0.0219-0.0695-0.0219h-0.0804zm0.0804-0.24236c0.0642 0 0.11466 0.0141 0.15099 0.0427 0.0367 0.0286 0.055 0.0681 0.055 0.11853 0 0.0275-8e-3 0.0515-0.0229 0.072-0.0155 0.0205-0.0377 0.037-0.0674 0.0497 0.0335 0.01 0.0575 0.0254 0.072 0.0476 0.0148 0.0222 0.0222 0.0498 0.0222 0.0829v0.0279c0 0.012 2e-3 0.0215 7e-3 0.0282 5e-3 7e-3 0.0131 0.0106 0.0243 0.012l0.0141 2e-3v0.0663h-0.0589c-0.037 0-0.0628-0.01-0.078-0.0289-0.0152-0.0194-0.0226-0.0444-0.0226-0.0751v-0.0314c0-0.0268-7e-3 -0.0476-0.0219-0.0628-0.0148-0.0152-0.0353-0.0233-0.0621-0.024h-0.0928v0.14499l0.0607 0.0113v0.066h-0.23425v-0.066l0.06-0.0113v-0.39476l-0.06-0.0113v-0.0663h0.06z" clip-path="url(#clipPath17557-0)"/>
    <path transform="matrix(26.51 0 0 26.51 -8959.8 -3093.6)" d="m326.58 115.47v-0.0663h0.23424v0.0663l-0.0607 0.0113v0.39476l0.0607 0.0113v0.066h-0.23424v-0.066l0.0607-0.0113v-0.39476z" clip-path="url(#clipPath17662-9)"/>
    <path transform="matrix(26.51 0 0 26.51 -8959.8 -3093.6)" d="m327.45 115.58h-0.085l-0.0148-0.0755c-0.01-6e-3 -0.0243-0.0113-0.043-0.0159-0.019-5e-3 -0.0392-7e-3 -0.0603-7e-3 -0.031 0-0.055 6e-3 -0.072 0.019-0.0169 0.0127-0.0254 0.0289-0.0254 0.049 0 0.0187 9e-3 0.0342 0.0265 0.0462 0.0176 0.0116 0.0483 0.0243 0.0921 0.0378 0.0621 0.0169 0.10971 0.0391 0.14181 0.067 0.0321 0.0275 0.0483 0.0639 0.0483 0.10901 0 0.0469-0.019 0.0843-0.0575 0.11148-0.0384 0.0272-0.0889 0.0406-0.15134 0.0406-0.0448 0-0.0854-7e-3 -0.12136-0.0205-0.0363-0.0141-0.0663-0.0332-0.0907-0.0575v-0.115h0.0878l0.012 0.0783c0.0116 9e-3 0.0272 0.0166 0.0466 0.0226 0.0198 6e-3 0.0413 9e-3 0.0656 9e-3 0.031 0 0.0547-6e-3 0.0709-0.0187 0.0162-0.0123 0.024-0.0286 0.024-0.0494 0-0.0212-7e-3 -0.0381-0.0229-0.0508-0.0155-0.0131-0.0423-0.0251-0.0811-0.0363-0.067-0.019-0.11783-0.0413-0.15205-0.0674-0.0346-0.0257-0.0519-0.0614-0.0519-0.10654 0-0.0444 0.0194-0.0808 0.0582-0.10936 0.0388-0.0282 0.0878-0.0427 0.14676-0.0434 0.0434 0 0.0829 6e-3 0.11888 0.019 0.0356 0.0131 0.0656 0.03 0.09 0.0515z" clip-path="url(#clipPath17647-1)"/>
   </g>
  </g>
  <g transform="translate(-444.25 -295.39)">
   <path transform="matrix(17.701 0 0 17.701 -6262.8 -2000.1)" d="m327.26 110.67c0 0.96661-0.78352 1.7501-1.7501 1.7501-0.96626 0-1.7498-0.78352-1.7498-1.7501s0.78352-1.7501 1.7498-1.7501c0.96661 0 1.7501 0.78352 1.7501 1.7501" clip-path="url(#clipPath17572-5)" fill="#f79434"/>
   <path transform="matrix(17.701 0 0 17.701 -6262.8 -2000.1)" d="m325.54 110.38h7.1e-4c-1e-3 2e-3 -2e-3 4e-3 -4e-3 6e-3zm1.8129-1.391c0.0286-0.0483 2e-3 -0.10936-0.0247-0.15911-0.0138-0.0258-0.0307-0.054-0.0593-0.0614-0.0247-6e-3 -0.0589 2e-3 -0.0699-0.0215-7e-3 -0.0145 2e-3 -0.031 3e-3 -0.0473 5e-3 -0.072-0.13723-0.0801-0.13547-0.1524 7.1e-4 -0.0187 0.012-0.037 7e-3 -0.0554-9e-3 -0.0353-0.0681-0.0388-0.0741-0.0748-2e-3 -0.0141 5e-3 -0.0279 8e-3 -0.0416 0.0102-0.0444-0.0236-0.0861-0.0356-0.12983-8e-3 -0.0296-6e-3 -0.061-5e-3 -0.0917 0.0113-0.18662 0.0226-0.37324 0.0335-0.55986 6e-3 -0.10618 0.0127-0.21202 0.0102-0.3182-4e-3 -0.15769-0.0265-0.31503-0.0681-0.46708-1e-3 0.29951-0.0356 0.59937-0.10301 0.89147-0.0265 0.11536-0.0586 0.23036-0.0677 0.34819-0.0106 0.13123 7e-3 0.26317 0.0251 0.39335 0.0208 0.15452 0.0504 0.3242 0.17215 0.42122 0.0272 0.0215 0.0624 0.0494 0.0519 0.0825-4e-3 0.0138-0.0159 0.024-0.0272 0.0332-0.0801 0.0663-0.16687 0.13546-0.27023 0.14499-0.0268 2e-3 -0.061 6e-3 -0.0688 0.0314-4e-3 0.013 2e-3 0.0268 7e-4 0.0402-2e-3 0.031-0.0342 0.0511-0.0646 0.0568-0.0307 6e-3 -0.0628 3e-3 -0.0917 0.0148-0.0289 0.0116-0.0505 0.036-0.0709 0.0596-0.031 0.036-0.0624 0.072-0.0935 0.10795-0.0124 0.0141-0.0254 0.0286-0.0423 0.0367-0.0427 0.0194-0.10971-1e-3 -0.127 0.0423-0.0106 0.0268 0.0106 0.0579 2e-3 0.0854-0.0212 0.0656-0.15523 0.01-0.1771 0.0751-0.01 0.0282 0.0131 0.0564 0.0339 0.0776-0.12347 0.0494-0.21943 0.15311-0.28469 0.26917-0.0155 0.0279-0.0296 0.0561-0.0423 0.0854-0.0346 3e-3 -0.0681 0.0173-0.0938 0.0409-0.0141 0.0134-0.0268 0.0296-0.0452 0.0363-0.0208 7e-3 -0.0437-3.5e-4 -0.0624-0.0116-0.019-0.0116-0.0349-0.0268-0.054-0.0378-0.0236-0.0134-0.0511-0.0194-0.078-0.0173-0.0339-0.0663-0.0709-0.13088-0.11606-0.19015-0.0804-0.10583-0.1898-0.19509-0.31927-0.22684 0.018-0.024 0.0363-0.055 0.0229-0.0818-0.0307-0.0617-0.15557 0.0123-0.18556-0.0497-0.0127-0.0261 4e-3 -0.06-0.0102-0.085-0.0229-0.0406-0.0868-0.0109-0.13159-0.0243-0.018-5e-3 -0.0328-0.018-0.0469-0.0303-0.036-0.0314-0.072-0.0628-0.10795-0.0942-0.0233-0.0205-0.048-0.0416-0.0783-0.049-0.03-7e-3 -0.0617-3.5e-4 -0.0924-2e-3 -0.031-2e-3 -0.066-0.0173-0.0723-0.0476-2e-3 -0.0131 7.1e-4 -0.0275-5e-3 -0.0395-0.0113-0.0247-0.0455-0.0233-0.0727-0.0219-0.10371 5e-3 -0.19932-0.0519-0.28751-0.10619-0.0124-8e-3 -0.0254-0.0159-0.0318-0.0289-0.0148-0.0314 0.0162-0.0639 0.0402-0.0893 0.10724-0.11253 0.11288-0.28504 0.11218-0.44062-3.5e-4 -0.13158-1e-3 -0.26458-0.0296-0.39299-0.0254-0.11571-0.073-0.22507-0.11536-0.33585-0.10725-0.27975-0.18309-0.57185-0.22507-0.86854-0.0205 0.15628-0.0215 0.31539-3e-3 0.47202 0.0123 0.10548 0.0332 0.20955 0.0543 0.31362 0.0367 0.18344 0.0737 0.36689 0.11042 0.54998 6e-3 0.0303 0.0123 0.061 8e-3 0.0914-6e-3 0.0452-0.0335 0.0907-0.0176 0.13335 5e-3 0.0134 0.0145 0.0261 0.0141 0.0406-1e-3 0.036-0.0593 0.048-0.0632 0.0843-2e-3 0.0187 0.012 0.0353 0.0148 0.0536 0.0116 0.0713-0.12736 0.0991-0.11289 0.16968 3e-3 0.0159 0.0141 0.031 0.01 0.0466-7e-3 0.0243-0.0423 0.0212-0.066 0.0307-0.0272 0.0113-0.0402 0.0416-0.0504 0.0691-0.0194 0.0529-0.0374 0.11713-2e-3 0.16087 0.0102 0.013 0.0243 0.0233 0.0296 0.0388 6e-3 0.0183-3e-3 0.0402 6e-3 0.0579 6e-3 0.0116 0.0183 0.0187 0.03 0.0247 0.26212 0.13793 0.54011 0.24553 0.79305 0.39969 0.2353 0.14358 0.46707 0.37959 0.58455 0.6343-2e-3 1e-3 -5e-3 2e-3 -7e-3 3e-3 -0.0307 0.0166-0.055 0.0427-0.0734 0.0723-0.16334-0.18591-0.41981-0.38135-0.63324-0.47131-0.121-0.0512-0.25082-0.0759-0.38029-0.0977-0.0582-0.01-0.11924-0.0187-0.17533-3.5e-4 -0.0561 0.0183-0.10478 0.0734-0.0953 0.13158 5e-3 0.0328 0.0272 0.0603 0.048 0.0864 0.0575 0.0727 0.11112 0.14852 0.16016 0.22684 0.0314 0.0501 0.061 0.10125 0.0988 0.1464 0.12277 0.14746 0.32068 0.21626 0.51259 0.21978 8e-3 0 0.0162 0 0.0236 3e-3 0.01 4e-3 0.0169 0.0134 0.0236 0.0219 0.0628 0.0797 0.139 0.14923 0.22437 0.20426 0.0229 0.0392 0.0483 0.0765 0.0762 0.11218 0.0198 0.0254 0.0409 0.0497 0.066 0.0698 0.0265 0.0208 0.0568 0.036 0.0885 0.0476 4e-3 0.0367 0.0145 0.0723 0.0254 0.10759 0.0268 0.0854 0.0561 0.1711 0.0991 0.24942 0.0148 0.0268 0.0317 0.0536 0.048 0.0801 0.024 0.0882 0.0374 0.1785 0.0317 0.26952-4e-3 0.0607-0.0141 0.12841 0.0229 0.17674 0.0349 0.0452 0.10124 0.0579 0.13299 0.10513 0.0113 0.0162 0.0173 0.0356 0.0289 0.0519 0.0215 0.0296 0.0593 0.0427 0.0945 0.0526 0.0674 0.0187 0.13724 0.0328 0.20638 0.0247 0.0691-8e-3 0.13794-0.042 0.17498-0.10125 0.0131-0.0208 0.0219-0.0441 0.0332-0.066 4e-3 -5e-3 8e-3 -9e-3 0.0124-0.0138 0.0374-0.0395 0.0903-0.066 0.1143-0.115 0.0187-0.0395 0.0148-0.0861 6e-3 -0.12912-1e-3 -6e-3 -2e-3 -0.0123-4e-3 -0.0183 3.6e-4 -0.0575-5e-3 -0.11677 7e-3 -0.17251 0.0159-0.0709 0.0589-0.13159 0.0917-0.19615 0.048-0.0931 0.0755-0.19649 0.0808-0.30127 0.12841-0.061 0.24271-0.15205 0.33055-0.26388 7e-3 -9e-3 0.0138-0.0176 0.024-0.0219 7e-3 -3e-3 0.0155-3e-3 0.0236-3e-3 0.19156-4e-3 0.38947-0.0727 0.51223-0.21978 0.0378-0.0452 0.0677-0.0963 0.0988-0.14641 0.0494-0.0783 0.10301-0.15416 0.16051-0.22683 0.0205-0.0261 0.0427-0.0536 0.048-0.0864 9e-3 -0.0586-0.0395-0.11325-0.0956-0.13159-0.0561-0.0187-0.11712-0.01-0.17498 3.5e-4 -0.12947 0.0215-0.25964 0.0466-0.38029 0.0977-0.18486 0.078-0.33796 0.21273-0.47131 0.36442-0.0219-0.043-0.0533-0.0815-0.0903-0.11289-5e-3 -4e-3 -0.01-8e-3 -0.0145-0.012 0.0762-0.27058 0.26882-0.49777 0.48754-0.67698 0.22895-0.18803 0.4893-0.33303 0.7299-0.50589 0.0109-8e-3 0.0219-0.0162 0.0261-0.0286 6e-3 -0.0187-6e-3 -0.0388-2e-3 -0.0582 3e-3 -0.0162 0.0155-0.0282 0.024-0.0423" clip-path="url(#clipPath17587-1)"/>
  </g>
 </g>
</svg>
