<?xml version="1.0" encoding="UTF-8" standalone="no"?>
<!-- Created with Inkscape (http://www.inkscape.org/) -->

<svg
   width="100"
   height="100"
   viewBox="0 0 26.458333 26.458333"
   version="1.1"
   id="svg1740"
   xmlns="http://www.w3.org/2000/svg"
   xmlns:svg="http://www.w3.org/2000/svg">
  <defs
     id="defs1737" />
  <g
     id="layer1">
    <g
       id="g1885"
       transform="matrix(0.44097252,0,0,0.44097252,539.71126,-59.528794)"
       style="fill:#000000">
      <path
         id="path630-2-1-0"
         style="fill:#000000;stroke-width:1.64476;stroke-linecap:round;stroke-linejoin:round;paint-order:stroke markers fill"
         d="m -1193.9111,134.99434 a 30,30 0 0 0 -30.0002,30.00024 30,30 0 0 0 30.0002,29.99972 30,30 0 0 0 29.9997,-29.99972 30,30 0 0 0 -29.9997,-30.00024 z m -5e-4,3.99976 a 26,26 0 0 1 25.9999,25.99996 26,26 0 0 1 -25.9999,25.99997 26,26 0 0 1 -25.9995,-25.99997 26,26 0 0 1 25.9995,-25.99996 z" />
      <path
         id="path1823"
         style="fill:#000000;stroke-width:1.64476;stroke-linecap:round;stroke-linejoin:round;paint-order:stroke markers fill"
         d="m -1193.9116,139.99456 a 25,25 0 0 0 -25,25.00002 25,25 0 0 0 25,24.99951 25,25 0 0 0 25,-24.99951 25,25 0 0 0 -25,-25.00002 z m -13.3331,9.9999 h 5.8333 a 1.6666666,1.6666666 0 0 1 1.6665,1.66657 c 0,2.08332 0.3339,4.08331 0.9499,5.95002 0.1827,0.58331 0.063,1.23352 -0.4155,1.70016 l -3.6675,3.66592 c 2.4,4.71666 6.2664,8.58331 10.9833,10.98331 l 3.667,-3.66644 c 0.4661,-0.46678 1.1158,-0.59982 1.6991,-0.41651 1.8671,0.61669 3.8674,0.95033 5.9505,0.95033 a 1.6666666,1.6666666 0 0 1 1.6666,1.66656 v 5.83324 a 1.6666666,1.6666666 0 0 1 -1.6666,1.66656 28.333334,28.333334 0 0 1 -28.3331,-28.33315 1.6666666,1.6666666 0 0 1 1.6665,-1.66657 z" />
    </g>
  </g>
</svg>
