<?xml version="1.0" encoding="UTF-8" standalone="no"?>
<!-- Created with Inkscape (http://www.inkscape.org/) -->

<svg
   width="100"
   height="100"
   viewBox="0 0 26.458333 26.458333"
   version="1.1"
   id="svg1740"
   xmlns="http://www.w3.org/2000/svg"
   xmlns:svg="http://www.w3.org/2000/svg">
  <defs
     id="defs1737" />
  <g
     id="layer1">
    <g
       id="g1889"
       transform="matrix(0.44097252,0,0,0.44097252,584.10476,-49.253553)"
       style="fill:#000000">
      <path
         id="path630-2-1-0-8"
         style="fill:#000000;stroke-width:1.64476;stroke-linecap:round;stroke-linejoin:round;paint-order:stroke markers fill"
         d="m -1294.5829,111.69302 a 30,30 0 0 0 -30.0002,30.00024 30,30 0 0 0 30.0002,29.99972 30,30 0 0 0 29.9997,-29.99972 30,30 0 0 0 -29.9997,-30.00024 z m -5e-4,3.99976 a 26,26 0 0 1 25.9999,25.99996 26,26 0 0 1 -25.9999,25.99997 26,26 0 0 1 -25.9995,-25.99997 26,26 0 0 1 25.9995,-25.99996 z" />
      <path
         id="path1823-0"
         style="fill:#000000;stroke-width:1.64476;stroke-linecap:round;stroke-linejoin:round;paint-order:stroke markers fill"
         d="m -1294.583,116.69314 a 25,25 0 0 0 -25,25.00002 25,25 0 0 0 25,24.99951 25,25 0 0 0 25,-24.99951 25,25 0 0 0 -25,-25.00002 z m -11.9998,12.99972 h 23.9996 c 1.6504,0 2.9998,1.33533 2.9998,3.00033 v 17.99994 a 2.9999811,2.9999811 0 0 1 -2.9998,2.99981 h -23.9996 a 2.9999811,2.9999811 0 0 1 -3.0003,-2.99981 v -17.99994 c 0,-1.665 1.3352,-3.00033 3.0003,-3.00033 z m 0,3.00033 v 2.99982 l 11.9998,7.4998 11.9998,-7.4998 v -2.99982 l -11.9998,7.4998 z" />
    </g>
  </g>
</svg>
