<?xml version="1.0" encoding="UTF-8" standalone="no"?>
<!-- Created with Inkscape (http://www.inkscape.org/) -->

<svg
   width="100"
   height="100"
   viewBox="0 0 26.458333 26.458333"
   version="1.1"
   id="svg1740"
   xmlns="http://www.w3.org/2000/svg"
   xmlns:svg="http://www.w3.org/2000/svg">
  <defs
     id="defs1737" />
  <g
     id="layer1">
    <path
       id="path630-2-1-6"
       style="fill:#000000;stroke-width:0.725294;stroke-linecap:round;stroke-linejoin:round;paint-order:stroke markers fill"
       d="M 13.229166,1.6666664e-8 A 13.229177,13.229177 0 0 0 1.2216667e-4,13.229281 13.229177,13.229177 0 0 0 13.229166,26.458333 13.229177,13.229177 0 0 0 26.458211,13.229281 13.229177,13.229177 0 0 0 13.229166,1.6666664e-8 Z M 13.229166,1.764011 A 11.465286,11.465286 0 0 1 24.694673,13.229281 11.465286,11.465286 0 0 1 13.229166,24.694551 11.465286,11.465286 0 0 1 1.7641002,13.229281 11.465286,11.465286 0 0 1 13.229166,1.764011 Z m 0,0.440717 A 11.024314,11.024314 0 0 0 2.2048082,13.229053 11.024314,11.024314 0 0 0 13.229166,24.253378 11.024314,11.024314 0 0 0 24.25348,13.229053 11.024314,11.024314 0 0 0 13.229166,2.204728 Z m -2.724769,4.409684 h 5.449495 c 2.137526,0 3.889907,1.75472 3.889907,3.889893 v 5.449496 c 0,2.137522 -1.754762,3.889892 -3.889907,3.889892 h -5.449495 c -2.1375258,0 -3.8898628,-1.754719 -3.8898628,-3.889892 v -5.449496 c 0,-2.137522 1.754674,-3.889893 3.8898628,-3.889893 z m 0,1.202745 c -1.4868708,0 -2.6871548,1.200278 -2.6871548,2.687148 v 5.449496 c 0,1.48687 1.200284,2.687147 2.6871548,2.687147 h 5.449495 c 1.486871,0 2.687154,-1.200277 2.687154,-2.687147 v -5.449496 c 0,-1.48687 -1.200283,-2.687148 -2.687154,-2.687148 z m 6.27623,1.315317 c 0.302992,0 0.545086,0.242075 0.545086,0.545086 0,0.303011 -0.242094,0.544859 -0.545086,0.544859 -0.303036,0 -0.544822,-0.241848 -0.544822,-0.544859 0,-0.303011 0.241786,-0.545086 0.544822,-0.545086 z m -3.551461,0.488573 c 1.984818,0 3.607994,1.623164 3.607994,3.608006 0,1.984843 -1.623176,3.608006 -3.607994,3.608006 -1.984861,0 -3.6080368,-1.623163 -3.6080368,-3.608006 0,-1.984842 1.6231758,-3.608006 3.6080368,-3.608006 z m 0,1.202744 c -1.336543,0 -2.405284,1.068723 -2.405284,2.405262 0,1.336539 1.068741,2.405262 2.405284,2.405262 1.336544,0 2.405241,-1.068723 2.405241,-2.405262 0,-1.336539 -1.068697,-2.405262 -2.405241,-2.405262 z" />
  </g>
</svg>
