<?xml version="1.0" encoding="UTF-8" standalone="no"?>
<!-- Created with Inkscape (http://www.inkscape.org/) -->

<svg
   width="100"
   height="100"
   viewBox="0 0 26.458333 26.458333"
   version="1.1"
   id="svg1740"
   xmlns="http://www.w3.org/2000/svg"
   xmlns:svg="http://www.w3.org/2000/svg">
  <defs
     id="defs1737" />
  <g
     id="layer1">
    <path
       id="path630-2-1"
       style="fill:#000000;stroke-width:0.725295;stroke-linecap:round;stroke-linejoin:round;paint-order:stroke markers fill"
       d="M 13.229277,-1.2133333e-5 A 13.229189,13.229189 0 0 0 1.7499999e-7,13.229281 13.229189,13.229189 0 0 0 13.229277,26.458345 13.229189,13.229189 0 0 0 26.458333,13.229281 13.229189,13.229189 0 0 0 13.229277,-1.2133333e-5 Z m 0,1.764012033333 A 11.465297,11.465297 0 0 1 24.694574,13.229281 11.465297,11.465297 0 0 1 13.229277,24.694561 11.465297,11.465297 0 0 1 1.7640242,13.229281 11.465297,11.465297 0 0 1 13.229277,1.7639999 Z m -2.21e-4,0.440946 A 11.024324,11.024324 0 0 0 2.2047322,13.229281 11.024324,11.024324 0 0 0 13.229056,24.253387 11.024324,11.024324 0 0 0 24.25338,13.229281 11.024324,11.024324 0 0 0 13.229056,2.2049459 Z M 8.0844452,6.6146339 H 18.373888 c 0.812096,0 1.469807,0.657697 1.469807,1.46982 V 18.373879 c 0,0.812123 -0.657711,1.46982 -1.469807,1.46982 h -2.635651 v -5.118848 h 1.738271 l 0.257969,-2.002829 H 15.750099 V 11.44681 c 0,-0.579144 0.161661,-0.971448 0.992189,-0.971448 h 1.049383 V 8.6892449 c -0.510823,-0.05218 -1.023762,-0.07848 -1.537496,-0.07702 -1.524311,0 -2.568667,0.931036 -2.568667,2.6390681 v 1.473694 H 11.96364 v 2.00283 h 1.721868 v 5.115885 H 8.0844452 c -0.812095,0 -1.469807,-0.657697 -1.469807,-1.46982 V 8.0844569 c 0,-0.812123 0.657712,-1.46982 1.469807,-1.46982 z" />
  </g>
</svg>
