<svg width="0" height="0" class="hidden">
  <symbol version="1.1" id="icon-fb" xmlns="http://www.w3.org/2000/svg" xmlnsSvg="http://www.w3.org/2000/svg" viewBox="0 0 26.458333 26.458333">
    <defs id="defs1737"></defs>
    <g id="layer1">
      <path id="path630-2-1" d="M 13.229277,-1.2133333e-5 A 13.229189,13.229189 0 0 0 1.7499999e-7,13.229281 13.229189,13.229189 0 0 0 13.229277,26.458345 13.229189,13.229189 0 0 0 26.458333,13.229281 13.229189,13.229189 0 0 0 13.229277,-1.2133333e-5 Z m 0,1.764012033333 A 11.465297,11.465297 0 0 1 24.694574,13.229281 11.465297,11.465297 0 0 1 13.229277,24.694561 11.465297,11.465297 0 0 1 1.7640242,13.229281 11.465297,11.465297 0 0 1 13.229277,1.7639999 Z m -2.21e-4,0.440946 A 11.024324,11.024324 0 0 0 2.2047322,13.229281 11.024324,11.024324 0 0 0 13.229056,24.253387 11.024324,11.024324 0 0 0 24.25338,13.229281 11.024324,11.024324 0 0 0 13.229056,2.2049459 Z M 8.0844452,6.6146339 H 18.373888 c 0.812096,0 1.469807,0.657697 1.469807,1.46982 V 18.373879 c 0,0.812123 -0.657711,1.46982 -1.469807,1.46982 h -2.635651 v -5.118848 h 1.738271 l 0.257969,-2.002829 H 15.750099 V 11.44681 c 0,-0.579144 0.161661,-0.971448 0.992189,-0.971448 h 1.049383 V 8.6892449 c -0.510823,-0.05218 -1.023762,-0.07848 -1.537496,-0.07702 -1.524311,0 -2.568667,0.931036 -2.568667,2.6390681 v 1.473694 H 11.96364 v 2.00283 h 1.721868 v 5.115885 H 8.0844452 c -0.812095,0 -1.469807,-0.657697 -1.469807,-1.46982 V 8.0844569 c 0,-0.812123 0.657712,-1.46982 1.469807,-1.46982 z"></path>
    </g>
  </symbol>
  <symbol version="1.1" id="icon-ig" xmlns="http://www.w3.org/2000/svg" xmlnsSvg="http://www.w3.org/2000/svg" viewBox="0 0 26.458333 26.458333">
    <defs id="defs1737"></defs>
    <g id="layer1">
      <path id="path630-2-1-6" d="M 13.229166,1.6666664e-8 A 13.229177,13.229177 0 0 0 1.2216667e-4,13.229281 13.229177,13.229177 0 0 0 13.229166,26.458333 13.229177,13.229177 0 0 0 26.458211,13.229281 13.229177,13.229177 0 0 0 13.229166,1.6666664e-8 Z M 13.229166,1.764011 A 11.465286,11.465286 0 0 1 24.694673,13.229281 11.465286,11.465286 0 0 1 13.229166,24.694551 11.465286,11.465286 0 0 1 1.7641002,13.229281 11.465286,11.465286 0 0 1 13.229166,1.764011 Z m 0,0.440717 A 11.024314,11.024314 0 0 0 2.2048082,13.229053 11.024314,11.024314 0 0 0 13.229166,24.253378 11.024314,11.024314 0 0 0 24.25348,13.229053 11.024314,11.024314 0 0 0 13.229166,2.204728 Z m -2.724769,4.409684 h 5.449495 c 2.137526,0 3.889907,1.75472 3.889907,3.889893 v 5.449496 c 0,2.137522 -1.754762,3.889892 -3.889907,3.889892 h -5.449495 c -2.1375258,0 -3.8898628,-1.754719 -3.8898628,-3.889892 v -5.449496 c 0,-2.137522 1.754674,-3.889893 3.8898628,-3.889893 z m 0,1.202745 c -1.4868708,0 -2.6871548,1.200278 -2.6871548,2.687148 v 5.449496 c 0,1.48687 1.200284,2.687147 2.6871548,2.687147 h 5.449495 c 1.486871,0 2.687154,-1.200277 2.687154,-2.687147 v -5.449496 c 0,-1.48687 -1.200283,-2.687148 -2.687154,-2.687148 z m 6.27623,1.315317 c 0.302992,0 0.545086,0.242075 0.545086,0.545086 0,0.303011 -0.242094,0.544859 -0.545086,0.544859 -0.303036,0 -0.544822,-0.241848 -0.544822,-0.544859 0,-0.303011 0.241786,-0.545086 0.544822,-0.545086 z m -3.551461,0.488573 c 1.984818,0 3.607994,1.623164 3.607994,3.608006 0,1.984843 -1.623176,3.608006 -3.607994,3.608006 -1.984861,0 -3.6080368,-1.623163 -3.6080368,-3.608006 0,-1.984842 1.6231758,-3.608006 3.6080368,-3.608006 z m 0,1.202744 c -1.336543,0 -2.405284,1.068723 -2.405284,2.405262 0,1.336539 1.068741,2.405262 2.405284,2.405262 1.336544,0 2.405241,-1.068723 2.405241,-2.405262 0,-1.336539 -1.068697,-2.405262 -2.405241,-2.405262 z"></path>
    </g>
  </symbol>
  <symbol version="1.1" id="icon-mail" xmlns="http://www.w3.org/2000/svg" xmlnsSvg="http://www.w3.org/2000/svg" viewBox="0 0 26.458333 26.458333">
    <defs id="defs1737"></defs>
    <g id="layer1">
      <g id="g1889" transform="matrix(0.44097252,0,0,0.44097252,584.10476,-49.253553)">
        <path id="path630-2-1-0-8" d="m -1294.5829,111.69302 a 30,30 0 0 0 -30.0002,30.00024 30,30 0 0 0 30.0002,29.99972 30,30 0 0 0 29.9997,-29.99972 30,30 0 0 0 -29.9997,-30.00024 z m -5e-4,3.99976 a 26,26 0 0 1 25.9999,25.99996 26,26 0 0 1 -25.9999,25.99997 26,26 0 0 1 -25.9995,-25.99997 26,26 0 0 1 25.9995,-25.99996 z"></path>
        <path id="path1823-0" d="m -1294.583,116.69314 a 25,25 0 0 0 -25,25.00002 25,25 0 0 0 25,24.99951 25,25 0 0 0 25,-24.99951 25,25 0 0 0 -25,-25.00002 z m -11.9998,12.99972 h 23.9996 c 1.6504,0 2.9998,1.33533 2.9998,3.00033 v 17.99994 a 2.9999811,2.9999811 0 0 1 -2.9998,2.99981 h -23.9996 a 2.9999811,2.9999811 0 0 1 -3.0003,-2.99981 v -17.99994 c 0,-1.665 1.3352,-3.00033 3.0003,-3.00033 z m 0,3.00033 v 2.99982 l 11.9998,7.4998 11.9998,-7.4998 v -2.99982 l -11.9998,7.4998 z"></path>
      </g>
    </g>
  </symbol>
  <symbol version="1.1" id="icon-phone" xmlns="http://www.w3.org/2000/svg" xmlnsSvg="http://www.w3.org/2000/svg" viewBox="0 0 26.458333 26.458333">
    <defs id="defs1737"></defs>
    <g id="layer1">
      <g id="g1885" transform="matrix(0.44097252,0,0,0.44097252,539.71126,-59.528794)">
        <path id="path630-2-1-0" d="m -1193.9111,134.99434 a 30,30 0 0 0 -30.0002,30.00024 30,30 0 0 0 30.0002,29.99972 30,30 0 0 0 29.9997,-29.99972 30,30 0 0 0 -29.9997,-30.00024 z m -5e-4,3.99976 a 26,26 0 0 1 25.9999,25.99996 26,26 0 0 1 -25.9999,25.99997 26,26 0 0 1 -25.9995,-25.99997 26,26 0 0 1 25.9995,-25.99996 z"></path>
        <path id="path1823" d="m -1193.9116,139.99456 a 25,25 0 0 0 -25,25.00002 25,25 0 0 0 25,24.99951 25,25 0 0 0 25,-24.99951 25,25 0 0 0 -25,-25.00002 z m -13.3331,9.9999 h 5.8333 a 1.6666666,1.6666666 0 0 1 1.6665,1.66657 c 0,2.08332 0.3339,4.08331 0.9499,5.95002 0.1827,0.58331 0.063,1.23352 -0.4155,1.70016 l -3.6675,3.66592 c 2.4,4.71666 6.2664,8.58331 10.9833,10.98331 l 3.667,-3.66644 c 0.4661,-0.46678 1.1158,-0.59982 1.6991,-0.41651 1.8671,0.61669 3.8674,0.95033 5.9505,0.95033 a 1.6666666,1.6666666 0 0 1 1.6666,1.66656 v 5.83324 a 1.6666666,1.6666666 0 0 1 -1.6666,1.66656 28.333334,28.333334 0 0 1 -28.3331,-28.33315 1.6666666,1.6666666 0 0 1 1.6665,-1.66657 z"></path>
      </g>
    </g>
  </symbol>
</svg>